<svg width="79" height="79" viewBox="0 0 79 79" fill="none" xmlns="http://www.w3.org/2000/svg">
<path d="M69.1242 6.58337L62.5409 13.1667M62.5409 13.1667L72.4159 23.0417L60.895 34.5625L51.02 24.6875M62.5409 13.1667L51.02 24.6875M37.4913 38.2163C39.1909 39.8933 40.542 41.8899 41.4668 44.0912C42.3916 46.2925 42.8718 48.655 42.8798 51.0427C42.8878 53.4304 42.4234 55.796 41.5134 58.0035C40.6034 60.2109 39.2657 62.2166 37.5773 63.9049C35.889 65.5933 33.8834 66.931 31.6759 67.841C29.4684 68.751 27.1028 69.2154 24.7151 69.2074C22.3274 69.1994 19.9649 68.7192 17.7636 67.7944C15.5623 66.8696 13.5657 65.5185 11.8887 63.8189C8.59087 60.4044 6.76608 55.8312 6.80733 51.0844C6.84857 46.3375 8.75257 41.7968 12.1092 38.4401C15.4659 35.0835 20.0066 33.1795 24.7535 33.1382C29.5003 33.097 34.0735 34.9218 37.488 38.2196L37.4913 38.2163ZM37.4913 38.2163L51.02 24.6875" stroke="#19212B" stroke-width="2" stroke-linecap="round" stroke-linejoin="round"/>
</svg>
